<?xml version="1.0" encoding="utf-8" ?>
<svg xmlns="http://www.w3.org/2000/svg" xmlns:xlink="http://www.w3.org/1999/xlink" width="512" height="512">
	<defs>
		<linearGradient id="gradient_0" gradientUnits="userSpaceOnUse" x1="391.70279" y1="775.19989" x2="375.93024" y2="-7.5523643">
			<stop offset="0" stop-color="#000C3F"/>
			<stop offset="1" stop-color="#491AA7"/>
		</linearGradient>
	</defs>
	<path fill="url(#gradient_0)" transform="scale(0.666667 0.666667)" d="M0 14.3939L-0.0252793 4.55515C-0.0236853 3.06502 -0.246093 1.37226 0.375 0L768 0L768 768L-0 768L0 14.3939Z"/>
	<path fill="#363CC6" transform="scale(0.666667 0.666667)" d="M0 14.3939L-0.0252793 4.55515C-0.0236853 3.06502 -0.246093 1.37226 0.375 0L0.463637 9.75778C0.461634 11.3105 0.643562 12.9541 0 14.3939Z"/>
	<path fill="#FCC9FA" transform="scale(0.666667 0.666667)" d="M27.9514 332.609C29.472 321.867 31.3501 311.106 34.1409 300.615C45.0124 259.747 66.005 219.886 92.4901 186.995C97.7309 180.487 102.941 173.156 109.123 167.547L109.72 167.752C101.532 182.6 97.2645 198.355 94.9681 215.049C92.6499 231.9 92.4725 248.606 97.2659 265.057C99.524 272.807 102.893 280.618 106.68 287.757L106.346 287.921L84.0424 297.562C73.8006 302.248 63.6992 307.922 54.1328 313.871L41.5616 322.569L33.357 328.994C31.9812 330.109 29.6927 332.371 27.9514 332.609Z"/>
	<path fill="#922CF9" transform="scale(0.666667 0.666667)" d="M152.119 120.14C154.571 116.941 158.66 114.038 161.709 111.381C173.941 100.724 186.235 90.7492 199.733 81.7211C227.746 62.9851 258.672 47.2621 290.953 37.358C318.53 28.8971 348.289 24.5225 377.123 24.2871L398.653 24.5348C402.052 24.6822 405.663 24.6609 408.997 25.3181C412.336 42.4105 407.769 58.7914 398.164 73.1784C391.904 82.5534 384.42 90.9114 376.23 98.6349C371.429 103.163 366.145 107.53 361.803 112.482C359.64 111.617 357.521 110.139 355.498 108.961L345.072 103.121C343.134 102.076 341.215 100.746 339.018 100.382L338.648 100.322C337.492 100.037 336.423 99.2274 335.35 98.697L328.629 95.6753C321.101 92.4527 313.486 89.8185 305.558 87.7742C297.538 85.7064 289.29 84.8449 281.046 84.3359C255.137 82.7364 229.005 87.0001 204.661 95.8685C197.282 98.5566 189.82 101.508 182.903 105.247C177.585 108.122 172.853 111.552 168.142 115.31C164.94 117.865 160.737 121.506 158.255 124.722L152.901 126.954C142.098 133.29 132.854 140.804 124.186 149.822L124.196 149.404C124.799 145.988 148.21 123.603 152.119 120.14Z"/>
	<path fill="#FF5D9A" transform="scale(0.666667 0.666667)" d="M106.68 287.757C111.894 297.384 117.797 306.124 124.528 314.744C127.334 318.338 130.098 322.11 133.604 325.061C119.375 356.127 105.576 388.72 99.1771 422.445C94.928 422.518 90.9829 423.653 86.887 424.688C73.4849 428.072 60.1057 432.906 47.9393 439.526C43.1345 442.14 38.5683 445.886 33.6857 448.17C25.4834 416.166 23.8964 382.292 26.3428 349.439C26.7409 344.092 26.6306 337.782 27.9514 332.609C29.6927 332.371 31.9812 330.109 33.357 328.994L41.5616 322.569L54.1328 313.871C63.6992 307.922 73.8006 302.248 84.0424 297.562L106.346 287.921L106.68 287.757Z"/>
	<path fill="#D1C1FD" transform="scale(0.666667 0.666667)" d="M408.997 25.3181C426.388 27.0099 443.582 29.2056 460.576 33.3908C483.288 38.9843 505.339 47.9882 526.179 58.5361L543.021 67.1893C557.255 75.188 570.957 84.4085 584.062 94.1332L604.883 110.71C607.359 112.766 610.832 115.141 612.827 117.626L612.918 117.806C619.305 122.876 625.064 128.8 630.823 134.555L659.353 164.954C661.993 168.03 665.178 171.219 667.438 174.566C669.738 176.751 671.622 179.535 673.555 182.048C679.216 189.408 684.327 197.117 689.236 204.993C720.068 254.46 741.034 310.655 742.442 369.466L742.486 386.72C741.043 384.893 740.039 382.786 738.721 380.867C736.037 376.961 733.065 373.247 729.929 369.697C715.717 353.609 698.424 339.551 681.799 326.026C673.846 319.555 666.061 312.756 657.154 307.611L665.586 292.126C671.53 280.188 675.912 265.891 677.09 252.562C677.825 244.236 677.414 235.739 676.593 227.433C675.742 218.827 674.209 209.778 671.446 201.562L669.632 200.385C668.843 196.514 667.903 192.546 666.594 188.816L661.278 175.169C659.262 171.554 657.617 167.817 655.298 164.362C643.667 147.029 626.092 132.888 606.844 125.015C587.46 118.227 563.465 118.467 544.465 126.444C524.804 134.697 508.787 150.359 497.195 167.981C493.006 174.349 489.297 180.739 486.4 187.807L361.803 112.482C366.145 107.53 371.429 103.163 376.23 98.6349C384.42 90.9114 391.904 82.5534 398.164 73.1784C407.769 58.7914 412.336 42.4105 408.997 25.3181Z"/>
	<defs>
		<linearGradient id="gradient_1" gradientUnits="userSpaceOnUse" x1="219.55112" y1="691.49969" x2="285.10413" y2="480.5827">
			<stop offset="0" stop-color="#A7C0FF"/>
			<stop offset="1" stop-color="#F6E6FB"/>
		</linearGradient>
	</defs>
	<path fill="url(#gradient_1)" transform="scale(0.666667 0.666667)" d="M33.6857 448.17C38.5683 445.886 43.1345 442.14 47.9393 439.526C60.1057 432.906 73.4849 428.072 86.887 424.688C90.9829 423.653 94.928 422.518 99.1771 422.445C97.0833 430.876 95.9619 439.681 95.2153 448.324C93.5332 467.8 94.675 486.545 99.5625 505.509C102.245 515.919 105.922 526.078 111.486 535.311L118.693 546.282C125.85 554.79 132.61 563.184 140.885 570.694C157.456 585.732 175.545 597.442 195.151 608.114C238.972 631.966 288.938 648.221 338.548 653.998C342.913 654.134 347.406 654.938 351.784 655.27L375.606 656.147C395.803 656.388 416.16 654.801 436.114 651.711L462.83 646.66C464.262 646.877 464.713 647.099 465.938 647.824L467.037 648.312L485.184 656.683C498.959 662.317 514.678 666.745 529.5 668.203C541.595 669.392 553.809 668.795 565.875 667.563C568.844 667.26 575.874 665.749 577.923 667.66C567.322 674.604 555.946 681.408 544.628 687.13L515.975 699.948C502.46 705.616 488.581 710.958 474.394 714.692C461.886 717.669 449.54 720.828 436.823 722.87C389.646 730.446 341.183 726.99 295.099 714.76C269.583 707.988 243.815 698.644 220.312 686.581C179.044 665.4 142.083 635.347 112.088 600.027C104.374 590.943 97.1408 581.619 90.363 571.814C88.3214 568.861 86.0339 565.993 84.2283 562.891C80.3147 558.254 77.063 552.438 73.9142 547.245C63.6523 530.321 54.8985 512.052 48.0392 493.486L39.689 467.608L33.6857 448.17Z"/>
	<path fill="#50D1FE" transform="scale(0.666667 0.666667)" d="M338.548 653.998C342.913 654.134 347.406 654.938 351.784 655.27L375.606 656.147C395.803 656.388 416.16 654.801 436.114 651.711L462.83 646.66C464.262 646.877 464.713 647.099 465.938 647.824L467.037 648.312L485.184 656.683C498.959 662.317 514.678 666.745 529.5 668.203C541.595 669.392 553.809 668.795 565.875 667.563C568.844 667.26 575.874 665.749 577.923 667.66C567.322 674.604 555.946 681.408 544.628 687.13L515.975 699.948C502.46 705.616 488.581 710.958 474.394 714.692C474.232 714.237 474.3 714.495 474.236 713.814L474.188 713.244C473.037 712.444 471.598 712.316 470.25 712.044L461.906 710.416L445.125 706.925C423.086 701.597 400.635 694.166 380.245 684.211C370.776 679.588 362.047 673.682 354.188 666.658C350.88 663.702 347.789 659.932 344.216 657.342L343.595 656.906C342.003 655.775 340.273 654.906 338.548 653.998Z"/>
	<path fill="#080343" transform="scale(0.666667 0.666667)" d="M158.255 124.722C160.737 121.506 164.94 117.865 168.142 115.31C172.853 111.552 177.585 108.122 182.903 105.247C189.82 101.508 197.282 98.5566 204.661 95.8685C229.005 87.0001 255.137 82.7364 281.046 84.3359C289.29 84.8449 297.538 85.7064 305.558 87.7742C313.486 89.8185 321.101 92.4527 328.629 95.6753L335.35 98.697C336.423 99.2274 337.492 100.037 338.648 100.322L339.018 100.382C341.215 100.746 343.134 102.076 345.072 103.121L355.498 108.961C357.521 110.139 359.64 111.617 361.803 112.482L486.4 187.807C489.297 180.739 493.006 174.349 497.195 167.981C508.787 150.359 524.804 134.697 544.465 126.444C563.465 118.467 587.46 118.227 606.844 125.015C626.092 132.888 643.667 147.029 655.298 164.362C657.617 167.817 659.262 171.554 661.278 175.169L666.594 188.816C667.903 192.546 668.843 196.514 669.632 200.385L671.446 201.562C674.209 209.778 675.742 218.827 676.593 227.433C677.414 235.739 677.825 244.236 677.09 252.562C675.912 265.891 671.53 280.188 665.586 292.126L657.154 307.611C666.061 312.756 673.846 319.555 681.799 326.026C698.424 339.551 715.717 353.609 729.929 369.697C733.065 373.247 736.037 376.961 738.721 380.867C740.039 382.786 741.043 384.893 742.486 386.72C742.718 396.038 741.55 405.769 740.566 415.035C738.788 431.77 735.531 448.692 730.688 464.825L723.389 485.89C718.874 498.48 714.092 511.109 708.326 523.188C697.342 546.199 683.177 568.798 667.15 588.636C660.777 596.525 653.807 603.979 646.823 611.325C628.835 630.245 608.429 648.032 586.505 662.254C583.83 663.99 580.832 666.424 577.923 667.66C575.874 665.749 568.844 667.26 565.875 667.563C553.809 668.795 541.595 669.392 529.5 668.203C514.678 666.745 498.959 662.317 485.184 656.683L467.037 648.312L465.938 647.824C464.713 647.099 464.262 646.877 462.83 646.66L436.114 651.711C416.16 654.801 395.803 656.388 375.606 656.147L351.784 655.27C347.406 654.938 342.913 654.134 338.548 653.998C288.938 648.221 238.972 631.966 195.151 608.114C175.545 597.442 157.456 585.732 140.885 570.694C132.61 563.184 125.85 554.79 118.693 546.282L111.486 535.311C105.922 526.078 102.245 515.919 99.5625 505.509C94.675 486.545 93.5332 467.8 95.2153 448.324C95.9619 439.681 97.0833 430.876 99.1771 422.445C105.576 388.72 119.375 356.127 133.604 325.061C130.098 322.11 127.334 318.338 124.528 314.744C117.797 306.124 111.894 297.384 106.68 287.757C102.893 280.618 99.524 272.807 97.2659 265.057C92.4725 248.606 92.6499 231.9 94.9681 215.049C97.2645 198.355 101.532 182.6 109.72 167.752L124.186 149.822C132.854 140.804 142.098 133.29 152.901 126.954L158.255 124.722Z"/>
	<path fill="#4263F7" transform="scale(0.666667 0.666667)" d="M170.134 137.241C168.677 137.134 167.162 137.865 165.833 138.402C160.606 140.513 156.792 143.459 152.062 146.377L151.577 145.875C151.693 145.233 151.835 144.536 152.16 143.963C152.938 142.589 154.65 141.406 155.961 140.532C160.998 137.175 167.429 134.794 173.379 133.763C172.015 134.843 171.306 136.081 170.134 137.241Z"/>
	<path fill="#363CC6" transform="scale(0.666667 0.666667)" d="M523.066 210.13L497.535 192.727C507.373 169.911 525.251 146.814 548.952 137.382C548.201 139.535 546.509 140.759 544.952 142.312L540.1 147.4C530.982 157.514 522.717 168.309 517.822 181.125C516.006 185.881 514.419 190.995 515.501 196.125L515.629 196.748C516.371 200.153 517.944 203.115 520.068 205.857C521.184 207.298 522.405 208.392 523.066 210.13Z"/>
	<path fill="#4263F7" transform="scale(0.666667 0.666667)" d="M669.632 200.385L671.446 201.562C674.209 209.778 675.742 218.827 676.593 227.433C677.414 235.739 677.825 244.236 677.09 252.562C675.912 265.891 671.53 280.188 665.586 292.126L657.154 307.611L655.057 313.059C654.008 316.265 652.883 319.5 651.114 322.393C648.075 327.364 643.14 331.372 638.649 334.988C637.831 334.005 637.265 332.551 636.668 331.413L632.962 324.304C635.65 320.409 639.045 317.002 642.208 313.491L650.88 303.057C651.101 302.06 653.17 299.755 653.812 298.821C666.373 280.55 674.405 259.249 674.168 236.812C674.038 224.49 671.852 212.455 669.632 200.385Z"/>
	<path fill="#EBE6EF" transform="scale(0.666667 0.666667)" d="M549.407 137.324C553.62 135.174 558.676 134.023 563.33 133.307C575.78 131.389 589.857 132.188 601.867 136.027C622.034 142.474 641.192 159.723 650.729 178.479C657.543 191.882 661.322 208.889 660.253 223.924C659.867 229.355 658.672 234.923 657.251 240.171L656.219 232.239C657.214 218.549 654.592 203.326 649.271 190.711C643.441 176.887 633.931 165.803 622.532 156.238C615.459 150.303 608.208 145.348 599.612 141.84C597.07 140.481 593.245 139.944 590.401 139.492C581.71 138.11 572.851 137.73 564.063 137.944C559.291 138.061 554.596 138.542 549.813 138.372L549.407 137.324Z"/>
	<path fill="#363CC6" transform="scale(0.666667 0.666667)" d="M584.062 213.403C585.478 213.251 586.931 213.249 588.353 213.331C591.985 213.541 596.053 216.814 598.366 219.508C602.45 224.265 605.635 231.217 605.122 237.612C604.7 242.874 602.003 247.896 597.999 251.313C593.544 255.115 589.306 255.656 583.623 255.257C574.687 252.519 568.147 245.783 561.644 239.376L564.329 233.073C568.789 224.567 574.548 216.406 584.062 213.403Z"/>
	<path fill="#363CC6" transform="scale(0.666667 0.666667)" d="M178.407 214.548C183.859 214.27 187.844 214.907 192.562 217.95C198.599 221.844 204.739 230.001 206.331 237.074C201.658 243.472 195.057 250.005 188.247 254.057L186.105 255.009C182.263 256.307 177.78 256.125 174.149 254.314C168.869 251.681 164.657 246.479 162.923 240.875C161.457 236.139 161.871 230.416 164.176 225.995C167.308 219.986 172.055 216.563 178.407 214.548Z"/>
	<path fill="#FF904D" transform="scale(0.666667 0.666667)" d="M173.379 133.763C192.841 129.277 212.665 131.969 229.74 142.604C244.489 151.79 257.219 165.612 264.659 181.292C266.402 184.966 268.096 188.538 269.013 192.524L264.499 195.399C263.754 196.172 262.452 196.824 261.539 197.422L255 201.767L229.72 220.018C229.055 215.839 227.063 212.072 224.497 208.766C215.714 197.452 201.248 190.322 187.125 188.766C171.309 187.023 154.445 191.493 141.92 201.353L154.234 167.265C157.837 157.96 161.759 147.818 168.046 139.998C168.768 139.389 169.549 138.025 170.134 137.241C171.306 136.081 172.015 134.843 173.379 133.763Z"/>
	<path fill="#FB6B2E" transform="scale(0.666667 0.666667)" d="M253.58 188.438L254.296 188.489C254.77 189.501 254.617 190.287 254.425 191.348L254.298 192C254.187 192.614 254.087 193.153 253.863 193.741C253.192 195.51 251.314 197.18 250.179 198.7C249.661 199.393 248.883 200.868 248.248 201.373C247.876 201.669 247.374 201.747 246.938 201.934L246.03 201.375C249.113 197.345 251.582 193.098 253.58 188.438Z"/>
	<path fill="#FDFDFD" transform="scale(0.666667 0.666667)" d="M173.379 133.763C192.841 129.277 212.665 131.969 229.74 142.604C244.489 151.79 257.219 165.612 264.659 181.292C266.402 184.966 268.096 188.538 269.013 192.524L264.499 195.399C262.587 193.89 262.08 191.666 261.054 189.542L257.328 182.575C248.523 166.852 235.044 152.343 219.285 143.51C212.183 153.534 206.367 165.117 197.47 173.631L195.067 171.864C188.48 166.656 182.655 159.77 177.11 153.483C174.438 150.453 170.983 146.895 168.943 143.409C168.329 142.36 168.184 141.185 168.046 139.998C168.768 139.389 169.549 138.025 170.134 137.241C171.306 136.081 172.015 134.843 173.379 133.763Z"/>
	<path fill="#4263F7" transform="scale(0.666667 0.666667)" d="M548.952 137.382L549.407 137.324L549.813 138.372C554.596 138.542 559.291 138.061 564.063 137.944C572.851 137.73 581.71 138.11 590.401 139.492C593.245 139.944 597.07 140.481 599.612 141.84C608.208 145.348 615.459 150.303 622.532 156.238C633.931 165.803 643.441 176.887 649.271 190.711C654.592 203.326 657.214 218.549 656.219 232.239L652.672 226.283C649.604 221.541 645.362 217.212 641.243 213.36C629.304 202.197 614.77 193.369 598.629 189.938C584.687 186.973 569.333 188.675 557.273 196.599C547.896 202.761 541.032 210.688 538.784 221.819L523.066 210.13C522.405 208.392 521.184 207.298 520.068 205.857C517.944 203.115 516.371 200.153 515.629 196.748L515.501 196.125C514.419 190.995 516.006 185.881 517.822 181.125C522.717 168.309 530.982 157.514 540.1 147.4L544.952 142.312C546.509 140.759 548.201 139.535 548.952 137.382Z"/>
	<path fill="#AFD7FF" transform="scale(0.666667 0.666667)" d="M549.813 138.372C554.596 138.542 559.291 138.061 564.063 137.944C572.851 137.73 581.71 138.11 590.401 139.492C593.245 139.944 597.07 140.481 599.612 141.84C597.825 143.41 596.702 147.48 595.738 149.683C592.482 157.125 589.649 165.515 585.017 172.207C581.03 169.255 577.509 165.588 573.96 162.127L549.813 138.372Z"/>
	<defs>
		<linearGradient id="gradient_2" gradientUnits="userSpaceOnUse" x1="266.95627" y1="183.35187" x2="264.52145" y2="84.445244">
			<stop offset="0" stop-color="#AD53FE"/>
			<stop offset="1" stop-color="#C576FE"/>
		</linearGradient>
	</defs>
	<path fill="url(#gradient_2)" transform="scale(0.666667 0.666667)" d="M158.255 124.722C160.737 121.506 164.94 117.865 168.142 115.31C172.853 111.552 177.585 108.122 182.903 105.247C189.82 101.508 197.282 98.5566 204.661 95.8685C229.005 87.0001 255.137 82.7364 281.046 84.3359C289.29 84.8449 297.538 85.7064 305.558 87.7742C313.486 89.8185 321.101 92.4527 328.629 95.6753L335.35 98.697C336.423 99.2274 337.492 100.037 338.648 100.322L339.018 100.382C341.141 101.998 343.476 103.574 345.317 105.512C348.523 108.888 350.895 113.107 353.866 116.702C358.679 122.525 370.027 132.181 371.213 139.715C371.783 143.334 370.351 147.577 368.167 150.445C365.393 154.088 361.557 156.489 357.398 158.261C353.894 159.754 350.046 160.663 346.379 161.67L331.014 166.056C313.736 171.148 296.566 176.942 280.198 184.487C275.999 175.401 270.557 167.341 264.295 159.563C252.021 144.316 237.33 131.471 218.699 124.632C204.654 119.476 187.329 118.435 172.587 121.152C167.709 122.051 163.064 123.614 158.255 124.722Z"/>
	<defs>
		<linearGradient id="gradient_3" gradientUnits="userSpaceOnUse" x1="402.50055" y1="647.51843" x2="428.91272" y2="459.34717">
			<stop offset="0" stop-color="#8382D4"/>
			<stop offset="1" stop-color="#AAAEEB"/>
		</linearGradient>
	</defs>
	<path fill="url(#gradient_3)" transform="scale(0.666667 0.666667)" d="M562.188 544.759C562.757 545.085 562.885 545.303 563.625 545.152C564.522 544.969 566.137 543.744 567.024 543.258L576.338 538.383C584.376 534.546 592.256 530.574 599.678 525.62C618.973 512.742 633.814 495.016 645.514 475.153L645.663 475.47C643.921 479.355 641.496 483.358 638.95 486.761C638.494 487.37 638.214 487.818 637.987 488.55C638.519 488.858 638.874 489.058 639.496 489.132C644.235 489.693 648.536 492.533 653.179 492.986L653.623 493.026C654.865 493.994 655.022 494.371 655.643 495.838L656.066 495.75C656.602 494.851 656.641 494.893 656.441 493.875C656.909 493.171 656.813 493.167 656.816 492.375C657.24 491.737 657.181 492.004 657.247 491.357L657.283 490.875C657.357 490.393 657.485 490.024 657.529 489.517L657.566 489C658.222 488.013 657.867 487.04 658.273 485.954L658.408 485.625C658.303 484.978 658.276 485.199 658.391 484.618L658.691 483.188L658.885 482.25C658.968 481.398 659.195 481.3 659.715 480.618C659.414 485.454 658.364 490.054 657.245 494.757C651.31 519.697 636.445 539.873 617.551 556.621C596.042 575.686 570.73 591.395 544.875 603.783C531.933 609.984 518.777 615.704 505.21 620.408C457.658 636.895 405.474 643.843 355.254 640.663C314.816 638.102 275.605 628.319 238.149 613.052C225.809 608.023 213.717 602.676 201.943 596.408L185.657 587.057C183.125 585.466 180.196 583.819 178.042 581.734C180.781 580.904 183.444 579.153 185.974 577.806L211.125 562.878C213.755 561.18 216.91 559.695 219.026 557.37C228.511 564.985 238.293 572.698 248.895 578.71C261.181 585.678 274.276 590.254 288.042 593.186C293.281 594.302 300.043 595.968 305.378 595.652L305.889 595.93C308.069 597.145 310.083 598.967 312.134 600.41L325.355 609.084C337.262 616.114 349.579 620.895 363.023 624.125C368.269 625.386 373.733 626.638 379.125 626.95C388.859 627.513 399.341 626.265 408.75 623.741C421.87 620.223 435.319 613.678 446.686 606.261L455.679 600.093C457.424 598.844 459.636 596.974 461.653 596.291C468.315 591.583 474.062 585.941 479.359 579.768C488.565 576.491 497.165 572.173 505.998 568.071C521.598 560.828 536.886 553.609 551.812 545.013C556.662 542.221 561.663 539.188 566.057 535.724L571.452 531.336C571.815 531.045 572.809 530.064 573.2 529.941C573.602 529.815 574.043 529.95 574.464 529.955C570.992 535.296 566.663 540.234 562.188 544.759Z"/>
	<path fill="#080343" transform="scale(0.666667 0.666667)" d="M479.359 579.768C488.565 576.491 497.165 572.173 505.998 568.071C521.598 560.828 536.886 553.609 551.812 545.013C556.662 542.221 561.663 539.188 566.057 535.724L571.452 531.336C571.815 531.045 572.809 530.064 573.2 529.941C573.602 529.815 574.043 529.95 574.464 529.955C570.992 535.296 566.663 540.234 562.188 544.759L540.327 563.855C534.799 568.234 528.838 571.99 522.815 575.641C513.38 581.361 503.568 586.65 493.045 590.09C486.49 592.232 479.836 593.499 473.023 594.474C469.371 594.996 465.3 596.221 461.653 596.291C468.315 591.583 474.062 585.941 479.359 579.768Z"/>
	<path fill="#18BDFF" transform="scale(0.666667 0.666667)" d="M655.057 313.059L657.154 307.611C666.061 312.756 673.846 319.555 681.799 326.026C698.424 339.551 715.717 353.609 729.929 369.697C733.065 373.247 736.037 376.961 738.721 380.867C740.039 382.786 741.043 384.893 742.486 386.72C742.718 396.038 741.55 405.769 740.566 415.035C738.788 431.77 735.531 448.692 730.688 464.825L723.389 485.89C718.874 498.48 714.092 511.109 708.326 523.188C697.342 546.199 683.177 568.798 667.15 588.636C660.777 596.525 653.807 603.979 646.823 611.325C628.835 630.245 608.429 648.032 586.505 662.254C583.83 663.99 580.832 666.424 577.923 667.66C575.874 665.749 568.844 667.26 565.875 667.563C553.809 668.795 541.595 669.392 529.5 668.203C514.678 666.745 498.959 662.317 485.184 656.683L467.037 648.312L465.938 647.824C464.713 647.099 464.262 646.877 462.83 646.66C469.104 645.98 475.229 644.278 481.319 642.685C506.902 635.989 531.593 625.953 555.42 614.579C569.412 607.9 582.931 600.222 595.875 591.694C616.225 578.285 634.818 562.854 649.168 542.987C656.207 533.241 661.846 523.456 665.839 512.072C670.568 498.592 672.291 484.646 672.931 470.438C674.11 444.211 670.541 417.658 662.646 392.625C656.329 372.598 647.711 353.868 638.649 334.988C643.14 331.372 648.075 327.364 651.114 322.393C652.883 319.5 654.008 316.265 655.057 313.059Z"/>
	<path fill="#FDFDFD" transform="scale(0.666667 0.666667)" d="M162.853 571.069L153.517 563.357C125.67 538.151 108.814 510.296 107.03 472.015C106.38 458.061 107.996 443.833 110.51 430.125C112.281 420.467 114.169 410.943 116.883 401.491C122.086 383.368 129.366 366.192 136.945 348.978C141.183 339.353 145.162 329.681 150.163 320.41C154.057 313.19 158.779 306.117 163.62 299.486C175.046 283.834 189.217 270.366 203.524 257.399C221.907 240.738 240.824 225.516 261.557 211.86C270.3 206.101 279.201 200.46 288.708 196.024C305.136 188.359 322.91 182.839 340.308 177.787C348.828 175.313 357.902 173.681 366.017 170.078C370.402 168.13 374.538 165.352 377.756 161.776C382.096 156.952 384.572 149.36 384.186 142.887L384.15 142.377C389.107 145.042 393.975 148.752 398.711 151.839C411.808 160.378 424.633 169.257 438.255 176.968C453.748 185.737 470.255 192.374 485.901 200.791C505.441 211.301 523.557 223.512 540.963 237.253C552.915 246.689 564.439 256.618 574.933 267.671C582.42 275.556 589.082 284.289 596.15 292.558C611.773 311.212 623.459 332.218 633.663 354.198C641.68 371.466 649.172 389.503 653.913 407.981C656.688 418.794 658.352 429.741 659.626 440.822C660.818 451.194 661.586 461.852 660.67 472.272C660.538 473.773 660.422 479.666 659.715 480.618C659.195 481.3 658.968 481.398 658.885 482.25L658.691 483.188L658.391 484.618C658.276 485.199 658.303 484.978 658.408 485.625L658.273 485.954C657.867 487.04 658.222 488.013 657.566 489L657.529 489.517C657.485 490.024 657.357 490.393 657.283 490.875L657.247 491.357C657.181 492.004 657.24 491.737 656.816 492.375C656.813 493.167 656.909 493.171 656.441 493.875C656.641 494.893 656.602 494.851 656.066 495.75L655.643 495.838C655.022 494.371 654.865 493.994 653.623 493.026L653.179 492.986C648.536 492.533 644.235 489.693 639.496 489.132C638.874 489.058 638.519 488.858 637.987 488.55C638.214 487.818 638.494 487.37 638.95 486.761C641.496 483.358 643.921 479.355 645.663 475.47L645.514 475.153C633.814 495.016 618.973 512.742 599.678 525.62C592.256 530.574 584.376 534.546 576.338 538.383L567.024 543.258C566.137 543.744 564.522 544.969 563.625 545.152C562.885 545.303 562.757 545.085 562.188 544.759C566.663 540.234 570.992 535.296 574.464 529.955C574.043 529.95 573.602 529.815 573.2 529.941C572.809 530.064 571.815 531.045 571.452 531.336L566.057 535.724C561.663 539.188 556.662 542.221 551.812 545.013C536.886 553.609 521.598 560.828 505.998 568.071C497.165 572.173 488.565 576.491 479.359 579.768C474.062 585.941 468.315 591.583 461.653 596.291C459.636 596.974 457.424 598.844 455.679 600.093L446.686 606.261C435.319 613.678 421.87 620.223 408.75 623.741C399.341 626.265 388.859 627.513 379.125 626.95C373.733 626.638 368.269 625.386 363.023 624.125C349.579 620.895 337.262 616.114 325.355 609.084L312.134 600.41C310.083 598.967 308.069 597.145 305.889 595.93L305.378 595.652C300.043 595.968 293.281 594.302 288.042 593.186C274.276 590.254 261.181 585.678 248.895 578.71C238.293 572.698 228.511 564.985 219.026 557.37C216.91 559.695 213.755 561.18 211.125 562.878L185.974 577.806C183.444 579.153 180.781 580.904 178.042 581.734L162.853 571.069Z"/>
	<path fill="#D1C1FD" transform="scale(0.666667 0.666667)" d="M433.496 580.344C438.613 577.747 442.957 574.106 447.254 570.367C447.236 570.849 447.328 571.73 447.188 572.16C446.722 573.589 443.447 576.462 442.312 577.482C439.85 579.695 435.508 582.335 432.416 583.451C432.819 582.924 433.204 582.444 433.682 581.98L434.062 581.625L433.653 580.736L433.496 580.344Z"/>
	<path fill="#8F8ECF" transform="scale(0.666667 0.666667)" d="M318.827 567.424C330.333 578.157 343.633 586.761 360.002 586.151C366.386 585.913 373.206 583.873 378.656 580.534C381.301 578.914 383.902 576.092 384.071 576.115C384.146 576.125 385.165 576.971 385.314 577.085C386.795 578.22 388.318 579.262 389.928 580.206C397.795 584.824 407.5 587.614 416.633 586.175C422.71 585.218 427.97 582.925 433.496 580.344L433.653 580.736L434.062 581.625L433.682 581.98C433.204 582.444 432.819 582.924 432.416 583.451C423.973 587.647 413.915 590.579 404.613 591.92C396.238 593.127 387.79 593.329 379.346 593.06C360.649 592.465 342.96 588.96 327.705 577.494C325.252 575.65 322.928 573.715 320.852 571.449C320.357 570.908 319.401 570.053 319.109 569.438C318.901 568.999 318.899 567.943 318.827 567.424Z"/>
	<path fill="#D1C1FD" transform="scale(0.666667 0.666667)" d="M208.095 547.279L219.026 557.37C216.91 559.695 213.755 561.18 211.125 562.878L185.974 577.806C183.444 579.153 180.781 580.904 178.042 581.734L162.853 571.069C165.535 570.859 167.717 570.097 170.267 569.336C178.937 566.748 186.702 562.17 194.295 557.351C199.292 554.18 203.763 551.378 208.095 547.279Z"/>
	<path fill="#D1C1FD" transform="scale(0.666667 0.666667)" d="M297.435 589.21C299.806 589.876 300.91 591.193 302.815 592.62C305.864 594.904 308.964 597.419 312.188 599.441L324.128 607.435C325.065 607.886 324.446 607.464 325.183 607.988C326.08 608.626 326.814 609.162 327.844 609.564C328.214 608.786 328.437 608.259 329.176 607.773L329.707 607.44L329.38 606.733C329.761 605.388 330.109 604.291 330.936 603.143C331.346 602.575 331.621 602.296 331.754 601.579L331.777 601.156C332.421 600.889 332.721 600.617 333.235 600.16L332.251 599.613L331.688 599.25L325.513 595.117C324.589 594.437 323.515 593.914 322.653 593.178L322.312 592.875L321.598 592.464L318 589.688C317.141 589.046 316.235 588.655 315.938 587.55C334.44 601.928 356.321 614.384 380.098 616.265C402.198 618.015 426.143 606.479 443.111 593.124C455.626 583.274 466.627 571.603 478.681 561.188L479.061 561.275C478.337 562.11 477.531 563.237 476.595 563.807C475.877 564.243 475.432 564.815 474.78 565.315C473.599 566.22 472.631 567.461 471.442 568.276C467.891 570.711 465.388 574.684 461.994 577.297C458.835 579.729 455.621 582.925 452.851 585.827C454.635 586.506 455.719 587.513 456.716 589.133C456.957 589.525 457.182 589.824 457.523 590.14C458.908 591.425 459.965 594.195 461.401 594.884C462.849 594.495 463.518 593.595 464.719 592.877C467.507 591.21 469.583 588.348 472.12 586.319L472.5 586.033C472.86 585.147 474.218 584.113 474.939 583.406C476.151 582.219 477.33 580.955 478.303 579.562L478.691 579C480.887 576.111 482.833 573.341 484.465 570.083L484.781 569.439L485.252 568.502C485.437 568.002 485.465 567.691 485.722 567.177L486.002 566.627L486.566 565.125C487.021 564.305 486.889 564.876 487.044 564.109C487.115 563.752 487.144 563.202 487.316 562.875C487.789 561.977 487.633 562.675 487.796 561.857C487.859 561.537 487.889 560.906 488.066 560.625L488.531 560.064C488.428 559.204 488.478 558.746 488.779 557.942L488.908 557.625L488.816 557.062C489.107 556.637 489.386 556.293 489.499 555.781C489.657 555.066 489.945 554.416 490.219 553.738C489.91 563.062 484.578 572.338 479.359 579.768C474.062 585.941 468.315 591.583 461.653 596.291C459.636 596.974 457.424 598.844 455.679 600.093L446.686 606.261C435.319 613.678 421.87 620.223 408.75 623.741C399.341 626.265 388.859 627.513 379.125 626.95C373.733 626.638 368.269 625.386 363.023 624.125C349.579 620.895 337.262 616.114 325.355 609.084L312.134 600.41C310.083 598.967 308.069 597.145 305.889 595.93L305.378 595.652L297.435 589.21Z"/>
	<path fill="#080343" transform="scale(0.666667 0.666667)" d="M370.46 546.862C362.585 541.399 354.323 536.355 346.864 530.32C343.57 527.655 340.289 524.927 337.726 521.52C334.539 517.281 331.657 510.94 332.686 505.507C332.869 504.538 333.276 503.962 334.14 503.456C337.343 501.582 345.054 504.238 348.426 505.218C355.487 506.237 362.619 509.035 369.641 510.553C378.706 512.512 388.181 512.767 397.309 511.072C405.359 509.577 413.12 506.818 421.032 504.765C423.85 504.21 431.562 502.535 433.963 504.277C434.798 504.882 435.358 505.993 435.445 507C436.021 513.724 432.909 519.806 428.548 524.687C420.433 533.768 408.998 540.224 398.941 546.942C397.542 551.614 395.999 557.368 398.456 562.023C399.817 564.601 402.265 565.98 405 566.681L407.062 567.048L407.636 567.136C414.654 568.145 422.15 565.776 428.765 563.671C438.833 560.467 448.561 556.96 457.07 550.499L465.188 544.379L465.812 544.688C465.643 546.568 464.69 548.574 463.658 550.148C463.188 550.865 463.395 550.474 463.108 551.238C462.674 552.396 461.776 553.387 461.088 554.411C460.619 555.111 460.098 555.594 459.489 556.169C456.584 561.12 451.381 566.368 447.254 570.367C442.957 574.106 438.613 577.747 433.496 580.344C427.97 582.925 422.71 585.218 416.633 586.175C407.5 587.614 397.795 584.824 389.928 580.206C388.318 579.262 386.795 578.22 385.314 577.085C385.165 576.971 384.146 576.125 384.071 576.115C383.902 576.092 381.301 578.914 378.656 580.534C373.206 583.873 366.386 585.913 360.002 586.151C343.633 586.761 330.333 578.157 318.827 567.424C312.967 561.371 307.758 554.355 303.765 546.957L308.609 551.349L309.019 551.446L309.619 551.607C311.475 552.083 312.829 553.225 314.438 554.215C319.157 557.117 324.416 559.014 329.569 560.985C339.287 564.703 351.913 569.783 362.447 567.209L366.886 565.995C369.972 564.83 372.877 563.056 374.228 559.924L374.375 559.568L374.666 558.848C375.494 556.43 375.099 553.095 373.528 551.062C372.607 549.872 371.417 548.944 370.765 547.555L370.46 546.862Z"/>
	<path fill="#EBE6EF" transform="scale(0.666667 0.666667)" d="M348.426 505.218C355.487 506.237 362.619 509.035 369.641 510.553C378.706 512.512 388.181 512.767 397.309 511.072C405.359 509.577 413.12 506.818 421.032 504.765C421.782 505.254 422.345 505.385 422.612 506.273C420.954 508.861 416.297 510.306 413.555 511.511C405.928 514.86 398.299 518.308 390.123 520.097C387.211 520.734 384.273 520.934 381.314 520.523C372.988 519.368 364.316 515.603 356.506 512.524C353.639 511.394 350.208 510.389 347.663 508.677C347.001 508.231 346.486 507.71 346.141 506.985C346.718 505.911 347.505 506.207 348.426 505.218Z"/>
	<defs>
		<linearGradient id="gradient_4" gradientUnits="userSpaceOnUse" x1="381.03741" y1="516.03436" x2="380.99481" y2="507.24423">
			<stop offset="0" stop-color="#020054"/>
			<stop offset="1" stop-color="#1D2086"/>
		</linearGradient>
	</defs>
	<path fill="url(#gradient_4)" transform="scale(0.666667 0.666667)" d="M348.426 505.218C355.487 506.237 362.619 509.035 369.641 510.553C378.706 512.512 388.181 512.767 397.309 511.072C405.359 509.577 413.12 506.818 421.032 504.765C421.782 505.254 422.345 505.385 422.612 506.273C418.703 506.039 414.709 507.74 411.118 509.139C402.027 512.682 391.32 518.22 381.318 517.046C372.233 515.98 362.935 511.462 354.217 508.661C352.24 508.026 348.049 506.188 346.141 506.985C346.718 505.911 347.505 506.207 348.426 505.218Z"/>
	<path fill="#D1C1FD" transform="scale(0.666667 0.666667)" d="M370.46 546.862C374.428 548.947 380.293 553.066 381.564 557.652C382.394 560.648 380.908 564.848 379.327 567.366C376.406 572.019 371.472 574.541 366.246 575.637C351.693 578.689 333.337 571.2 321.415 563.224C317.045 560.3 311.619 555.745 308.609 551.349L309.019 551.446L309.619 551.607C311.475 552.083 312.829 553.225 314.438 554.215C319.157 557.117 324.416 559.014 329.569 560.985C339.287 564.703 351.913 569.783 362.447 567.209L366.886 565.995C369.972 564.83 372.877 563.056 374.228 559.924L374.375 559.568L374.666 558.848C375.494 556.43 375.099 553.095 373.528 551.062C372.607 549.872 371.417 548.944 370.765 547.555L370.46 546.862Z"/>
	<path fill="#D1C1FD" transform="scale(0.666667 0.666667)" d="M398.941 546.942C397.542 551.614 395.999 557.368 398.456 562.023C399.817 564.601 402.265 565.98 405 566.681L407.062 567.048L407.636 567.136C414.654 568.145 422.15 565.776 428.765 563.671C438.833 560.467 448.561 556.96 457.07 550.499L465.188 544.379L465.812 544.688C465.643 546.568 464.69 548.574 463.658 550.148C463.188 550.865 463.395 550.474 463.108 551.238C462.674 552.396 461.776 553.387 461.088 554.411C460.619 555.111 460.098 555.594 459.489 556.169L459.21 556.131L455.838 559.313C452.041 562.357 447.621 564.604 443.291 566.773C432.106 572.374 417.685 578.334 404.971 576.931C399.104 576.284 393.628 573.787 389.95 569.062C387.619 566.068 386.817 562.885 387.395 559.125C387.993 555.232 390.303 552.592 393.353 550.328L398.941 546.942Z"/>
	<path fill="#191B8A" transform="scale(0.666667 0.666667)" d="M427.183 413.188C424.175 396.653 422.875 378.939 430.545 363.375C437.079 350.116 449.195 340.65 463.056 335.97C469.497 333.795 477.399 332.142 484.187 333.304C488.935 334.116 492.932 336.008 497.2 338.149C502.525 341.742 507.194 345.972 511.96 350.251C525.622 362.513 537.449 376.088 549.251 390.086C557.298 399.63 565.457 409.179 572.259 419.676C580.393 432.23 588.694 447.458 591.529 462.229C596.127 486.193 590.001 507.475 576.398 527.416C575.86 528.204 575.218 529.402 574.464 529.955C574.043 529.95 573.602 529.815 573.2 529.941C572.809 530.064 571.815 531.045 571.452 531.336L566.057 535.724C561.663 539.188 556.662 542.221 551.812 545.013C536.886 553.609 521.598 560.828 505.998 568.071C497.165 572.173 488.565 576.491 479.359 579.768C484.578 572.338 489.91 563.062 490.219 553.738L490.349 553.563C492.231 530.027 480.324 507.54 468.522 487.942C464.944 481.999 460.569 475.915 457.565 469.694L457.29 469.112L445.815 451.36C438.386 439.567 430.905 426.69 427.183 413.188Z"/>
	<path fill="#080343" transform="scale(0.666667 0.666667)" d="M427.183 413.188C428.38 411.766 429.825 410.922 431.192 409.713C433.524 407.65 435.698 405.334 437.909 403.14C449.311 391.823 461.295 376.616 478.441 375.169C487.294 374.422 498.265 377.464 505.001 383.38C513.859 391.16 518.966 400.611 520.608 412.283C521.098 415.767 521.049 419.522 520.557 423C519.588 429.845 516.982 436.246 511.342 440.599C508.29 442.954 504.933 444.592 501.188 445.506C491.989 447.749 482.156 446.082 472.985 444.371L463.542 442.733L480.378 462.49C477.185 460.286 473.702 458.336 470.638 455.97C468.553 454.36 466.669 452.353 464.812 450.482L464.618 450.878C465.298 451.561 465.971 452.131 466.408 453L465.75 453.188L465.188 452.816C463.739 452.816 464.983 452.639 464.062 453.191L463.502 453.377C461.024 454.534 459.931 456.96 459.476 459.434C459.179 461.048 459.251 466.825 458.344 467.679L457.692 467.454L457.311 467.906L457.725 468.477L457.29 469.112L445.815 451.36C438.386 439.567 430.905 426.69 427.183 413.188Z"/>
	<path fill="#EBE6EF" transform="scale(0.666667 0.666667)" d="M484.446 390.886C486.505 390.79 488.556 391.126 490.562 391.578C496.624 392.943 502.04 397.092 505.269 402.367C508.81 408.15 510.085 415.004 508.338 421.61C507.47 424.89 505.351 428.181 502.352 429.872C496.015 433.443 487.043 432.103 480.403 430.216L453.693 420.776C458.65 414.991 461.395 407.258 466.222 401.182C471.033 395.127 476.734 391.746 484.446 390.886Z"/>
	<path fill="#080343" transform="scale(0.666667 0.666667)" d="M484.99 405.562C486.306 405.343 487.853 405.394 489.188 405.536C491.991 405.837 495.392 406.764 497.164 409.125C498.731 411.214 498.834 414.531 498.387 417C497.685 420.871 495.011 424.681 491.654 426.702C488.334 428.701 485.01 428.424 481.424 427.642C478.875 426.604 476.412 425.306 474.598 423.19C470.419 418.317 470.25 414.502 470.768 408.397C472.951 409.836 475.595 411.819 478.186 412.349C479.462 412.61 481.089 412.167 482.101 411.368C483.273 410.441 484.28 409.053 484.47 407.556C484.565 406.806 484.686 406.273 484.99 405.562Z"/>
	<defs>
		<linearGradient id="gradient_5" gradientUnits="userSpaceOnUse" x1="311.80896" y1="574.41199" x2="229.65634" y2="351.99243">
			<stop offset="0" stop-color="#000179"/>
			<stop offset="1" stop-color="#AF63C2"/>
		</linearGradient>
	</defs>
	<path fill="url(#gradient_5)" transform="scale(0.666667 0.666667)" d="M183.544 512.139L183.229 511.581C181.656 508.702 180.721 505.096 179.859 501.938C175.661 486.547 175.937 469.706 180.578 454.456C183.734 444.085 188.582 434.295 193.821 424.838C208.146 398.978 227.072 375.781 248.513 355.516C255.541 348.873 263.809 341.166 272.408 336.675C282.421 331.447 294.139 333.544 304.441 336.851C318.792 341.458 332.577 350.391 339.581 364.133C347.384 379.441 346.31 397.883 341.225 413.815C336.032 428.295 327.487 442 319.692 455.214C316.745 460.21 314 465.531 310.691 470.289C308.338 475.184 304.643 479.879 301.67 484.439C292.781 498.073 283.168 513.757 279.998 529.901C276.137 546.712 277.738 563.081 287.073 577.818L290.783 582.892L297.435 589.21L305.378 595.652C300.043 595.968 293.281 594.302 288.042 593.186C274.276 590.254 261.181 585.678 248.895 578.71C238.293 572.698 228.511 564.985 219.026 557.37L208.095 547.279C203.161 542.49 198.53 537.155 194.599 531.513C192.846 529.391 191.47 526.863 190.051 524.503C187.632 520.478 185.329 516.495 183.544 512.139Z"/>
	<path fill="#080343" transform="scale(0.666667 0.666667)" d="M194.599 531.513C195.445 531.273 195.873 530.919 196.674 531.381C198.954 532.697 201.038 535.024 203.19 536.628C207.954 540.181 212.961 543.469 218.036 546.559C231.933 555.024 246.852 560.963 261.344 568.226L279.496 577.624C282.899 579.406 287.051 582.246 290.783 582.892L297.435 589.21L305.378 595.652C300.043 595.968 293.281 594.302 288.042 593.186C274.276 590.254 261.181 585.678 248.895 578.71C238.293 572.698 228.511 564.985 219.026 557.37L208.095 547.279C203.161 542.49 198.53 537.155 194.599 531.513Z"/>
	<path fill="#080343" transform="scale(0.666667 0.666667)" d="M310.691 470.289L310.041 470.139C309.725 470.745 309.341 471.224 308.908 471.75L308.512 471.641L308.506 470.38C308.572 469.89 308.802 469.442 308.806 468.937C308.812 468.186 308.075 464.818 307.693 464.24C306.962 463.134 305.226 462.106 304.305 461.001C302.879 459.29 301.302 458.016 300.645 455.8L300.562 455.441L299.812 455.43C296.871 458.942 292.842 461.721 289.569 465.009C290.447 462.889 292.184 461.321 293.492 459.458C297.297 454.036 300.835 448.56 305.039 443.418C302.925 443.14 299.464 444.1 297.234 444.312C288.509 445.145 279.075 446.097 270.375 444.784C265.951 444.117 261.53 442.303 257.955 439.584C252.038 435.083 249.58 428.814 248.552 421.688C248.025 418.037 247.984 413.614 248.472 409.957L249.175 405.591C251.459 395.438 257.322 386.401 266.17 380.787C273.993 375.823 284.074 372.992 293.298 375.159C305.376 377.997 313.742 386.823 322.426 395.091L341.225 413.815C336.032 428.295 327.487 442 319.692 455.214C316.745 460.21 314 465.531 310.691 470.289Z"/>
	<path fill="#FDFDFD" transform="scale(0.666667 0.666667)" d="M279.848 391.582C284.429 391.411 288.112 391.574 292.328 393.516C300.965 397.493 305.304 407.094 310.024 414.817C311.233 416.796 313.314 419.03 314.115 421.14L291.467 428.806L284.209 431.138C279.419 432.336 272.429 432.455 268.125 429.758C264.334 427.382 261.823 423.319 260.968 418.967C259.74 412.72 260.796 406.098 264.475 400.83C268.26 395.411 273.449 392.698 279.848 391.582Z"/>
	<path fill="#080343" transform="scale(0.666667 0.666667)" d="M277.526 405.499L278.339 405.408C281.738 405.157 284.76 404.986 286.275 408.631C286.833 409.975 286.986 410.962 288.137 411.938C291.85 412.261 294.536 410.893 297.4 408.776C297.489 410.631 297.551 412.625 297.3 414.465C296.677 419.044 295.348 423.18 291.517 426.013C287.271 428.051 282.921 428.972 278.326 427.366C275.477 426.37 273.476 424.16 272.27 421.445C270.935 418.44 270.248 413.933 271.564 410.812C272.755 407.99 274.89 406.705 277.526 405.499Z"/>
	<path fill="#EBE6EF" transform="scale(0.666667 0.666667)" d="M497.2 338.149C497.361 337.808 497.659 337.501 497.682 337.125C497.73 336.341 488.975 324.9 487.806 323.35C471.398 301.596 455.424 277.996 444.106 253.125C436.345 236.071 430.508 218.002 426.12 199.812C424.801 194.349 422.864 188.847 421.946 183.327C423.419 183.219 425.173 183.55 426.615 183.898C433.378 185.53 440.045 187.858 446.625 190.095C459.976 194.633 472.58 199.99 484.847 206.965C491.62 210.816 498.2 214.862 503.996 220.126C511.403 226.853 517.51 234.545 523.729 242.337L535.807 257.044L557.252 285.65C564.405 295.585 571.547 305.513 577.8 316.054C583.127 307.498 590.016 300.474 596.15 292.558C611.773 311.212 623.459 332.218 633.663 354.198C641.68 371.466 649.172 389.503 653.913 407.981C656.688 418.794 658.352 429.741 659.626 440.822C660.818 451.194 661.586 461.852 660.67 472.272C660.538 473.773 660.422 479.666 659.715 480.618C659.195 481.3 658.968 481.398 658.885 482.25L658.691 483.188L658.391 484.618C658.276 485.199 658.303 484.978 658.408 485.625L658.273 485.954C657.867 487.04 658.222 488.013 657.566 489L657.529 489.517C657.485 490.024 657.357 490.393 657.283 490.875L657.247 491.357C657.181 492.004 657.24 491.737 656.816 492.375C656.813 493.167 656.909 493.171 656.441 493.875C656.641 494.893 656.602 494.851 656.066 495.75L655.643 495.838C655.022 494.371 654.865 493.994 653.623 493.026L653.179 492.986C648.536 492.533 644.235 489.693 639.496 489.132C638.874 489.058 638.519 488.858 637.987 488.55C638.214 487.818 638.494 487.37 638.95 486.761C641.496 483.358 643.921 479.355 645.663 475.47L645.514 475.153C633.814 495.016 618.973 512.742 599.678 525.62C592.256 530.574 584.376 534.546 576.338 538.383L567.024 543.258C566.137 543.744 564.522 544.969 563.625 545.152C562.885 545.303 562.757 545.085 562.188 544.759C566.663 540.234 570.992 535.296 574.464 529.955C575.218 529.402 575.86 528.204 576.398 527.416C590.001 507.475 596.127 486.193 591.529 462.229C588.694 447.458 580.393 432.23 572.259 419.676C565.457 409.179 557.298 399.63 549.251 390.086C537.449 376.088 525.622 362.513 511.96 350.251C507.194 345.972 502.525 341.742 497.2 338.149Z"/>
</svg>
